<?xml version="1.0" encoding="UTF-8" standalone="no"?>
<!-- Uploaded to: SVG Repo, www.svgrepo.com, Generator: SVG Repo Mixer Tools -->

<svg
   fill="#000000"
   width="720"
   height="720"
   viewBox="0 0 460.8 460.8"
   version="1.1"
   id="svg8"
   sodipodi:docname="logo-react.svg"
   inkscape:version="1.2.2 (b0a8486541, 2022-12-01)"
   xmlns:inkscape="http://www.inkscape.org/namespaces/inkscape"
   xmlns:sodipodi="http://sodipodi.sourceforge.net/DTD/sodipodi-0.dtd"
   xmlns="http://www.w3.org/2000/svg"
   xmlns:svg="http://www.w3.org/2000/svg"
   xmlns:rdf="http://www.w3.org/1999/02/22-rdf-syntax-ns#"
   xmlns:cc="http://creativecommons.org/ns#"
   xmlns:dc="http://purl.org/dc/elements/1.1/">
  <defs
     id="defs12" />
  <sodipodi:namedview
     id="namedview10"
     pagecolor="#ffffff"
     bordercolor="#000000"
     borderopacity="0.25"
     inkscape:showpageshadow="2"
     inkscape:pageopacity="0.0"
     inkscape:pagecheckerboard="0"
     inkscape:deskcolor="#d1d1d1"
     showgrid="false"
     inkscape:zoom="1.1847222"
     inkscape:cx="360"
     inkscape:cy="360"
     inkscape:window-width="1920"
     inkscape:window-height="1048"
     inkscape:window-x="0"
     inkscape:window-y="0"
     inkscape:window-maximized="1"
     inkscape:current-layer="svg8" />
  <title
     id="title2">ionicons-v5_logos</title>
  <g
     id="g299"
     transform="translate(-16,-16.39885)"
     style="fill:#61dbfb;fill-opacity:1">
    <path
       d="m 394.85781,174.75593 v 0 q -7.36289,-2.50736 -14.83138,-4.67019 1.23835,-5.02429 2.28471,-10.106 c 11.23153,-54.45368 3.88783,-98.322871 -21.17672,-112.764102 -23.999,-13.857459 -63.35736,0.583774 -103.06131,35.112577 q -5.85575,5.110417 -11.47152,10.527075 -3.74384,-3.598345 -7.67968,-7.04357 C 197.30765,48.890399 155.59738,33.33904 130.56163,47.828121 106.56263,61.71429 99.430124,102.95171 109.5385,154.56309 q 1.51674,7.65605 3.40786,15.24511 c -5.90375,1.67476 -11.60592,3.46437 -17.058489,5.35924 C 47.160302,192.15431 16,218.7878 16,246.40702 c 0,28.53795 33.445006,57.15245 84.25569,74.50298 q 6.18214,2.09585 12.47948,3.89501 -2.04472,8.12499 -3.61905,16.43182 c -9.5996,50.72136 -2.11191,90.98262 21.83909,104.78267 24.73817,14.24982 66.23724,-0.39238 106.68995,-35.70593 q 4.7998,-4.19169 9.5996,-8.85231 6.06695,5.84732 12.47948,11.3501 c 39.16637,33.6675 77.84316,47.26656 101.75576,33.42825 24.71897,-14.29768 32.75384,-57.55439 22.31907,-110.1802 q -1.19995,-6.02913 -2.76468,-12.3071 4.37742,-1.29196 8.57244,-2.67005 C 442.40463,303.59775 476.8,275.32777 476.8,246.43574 476.7808,218.68254 444.62214,191.87678 394.85781,174.75593 Z M 271.02297,97.16182 c 34.01139,-29.581078 65.80526,-41.256561 80.30066,-32.911462 v 0 c 15.42655,8.890592 21.4263,44.740062 11.73071,91.757812 q -0.95996,4.59363 -2.07351,9.15855 a 468.29729,466.85661 0 0 0 -61.61024,-9.72319 461.99995,460.57864 0 0 0 -38.94557,-48.56809 q 5.16458,-4.99558 10.57875,-9.71362 z M 152.05513,270.00681 q 6.24934,12.05829 13.06506,23.8199 6.94051,12.00087 14.46659,23.64764 a 417.85139,416.5659 0 0 1 -42.46863,-6.82346 c 4.07023,-13.13014 9.08122,-26.76748 14.93698,-40.64408 z m 0,-46.25213 c -5.75976,-13.57994 -10.63636,-26.93975 -14.63939,-39.8402 13.15145,-2.938 27.16687,-5.34009 41.77746,-7.15841 q -7.34369,11.42666 -14.13061,23.18827 -6.78692,11.76162 -13.03626,23.81034 z m 10.46356,23.13085 q 9.10043,-18.92003 19.60239,-37.11273 v 0 q 10.49236,-18.18312 22.33827,-35.53365 c 13.70823,-1.03357 27.76204,-1.57907 41.95985,-1.57907 14.19781,0 28.33802,0.5455 42.03665,1.58864 q 11.72111,17.31224 22.20387,35.40925 10.48277,18.09699 19.86157,36.94045 -9.25401,18.98702 -19.81357,37.26584 v 0 q -10.47316,18.18313 -22.07908,35.63895 c -13.67943,0.957 -27.83884,1.48335 -42.23824,1.48335 -14.3994,0 -28.29002,-0.44979 -41.71986,-1.32067 q -11.9323,-17.40795 -22.52066,-35.68678 -10.58836,-18.27883 -19.65998,-37.09358 z m 165.22832,46.80719 q 6.95971,-12.03913 13.36264,-24.3941 v 0 a 422.77598,421.47534 0 0 1 15.47456,40.50053 417.04502,415.76201 0 0 1 -42.99661,7.3211 q 7.3149,-11.57021 14.15941,-23.42753 z m 13.17065,-69.92847 q -6.37413,-12.10614 -13.25705,-23.92517 v 0 q -6.71972,-11.65635 -14.00581,-23.02559 c 14.69698,1.85659 28.7988,4.32568 42.01745,7.34024 a 422.2768,420.9777 0 0 1 -14.75459,39.61052 z M 246.61119,120.93386 v 0 a 422.14241,420.84372 0 0 1 27.11887,32.7105 q -27.21487,-1.29196 -54.46813,0 c 8.95643,-11.80947 18.12405,-22.76719 27.34926,-32.7105 z M 140.46841,64.834132 c 15.41696,-8.919303 49.50514,3.828026 85.43644,35.667648 2.29431,2.03841 4.60781,4.17254 6.91172,6.38323 a 471.69555,470.24442 0 0 0 -39.22397,48.52981 479.13524,477.66122 0 0 0 -61.49504,9.57007 q -1.75672,-7.04357 -3.16787,-14.18284 v 0 c -8.68763,-44.24242 -2.93747,-77.594109 11.53872,-85.967918 z M 117.99575,305.85629 q -5.75976,-1.63649 -11.37553,-3.5505 C 84.15716,294.64973 65.601133,284.65858 52.862464,273.77742 41.458139,264.02552 35.67918,254.29276 35.67918,246.40702 c 0,-16.75718 25.016558,-38.13672 66.73642,-52.63537 q 7.86207,-2.72747 15.85854,-4.986 a 473.77866,472.32112 0 0 0 22.46306,58.13816 482.3415,480.85761 0 0 0 -22.74145,58.93248 z m 106.68035,89.64282 c -17.88405,15.61835 -35.7969,26.69091 -51.58825,32.27027 v 0 c -14.1882,5.00514 -25.48693,5.14869 -32.31225,1.21539 -14.53379,-8.3738 -20.58154,-40.71106 -12.33549,-84.08261 q 1.46874,-7.65606 3.35986,-15.31211 a 461.59677,460.1767 0 0 0 62.09982,8.9863 481.13195,479.65179 0 0 0 39.55035,48.80734 c -2.86068,2.80403 -5.78856,5.50279 -8.77404,8.11542 z m 22.48227,-22.2217 c -9.33081,-10.05814 -18.64243,-21.18813 -27.72365,-33.15072 q 13.23785,0.51679 26.95568,0.51679 c 9.38841,0 18.68082,-0.20097 27.83884,-0.61248 a 421.73923,420.44178 0 0 1 -27.07087,33.24641 z m 119.53422,27.36082 c -2.74549,14.77619 -8.26526,24.63335 -15.09057,28.57623 -14.5242,8.40252 -45.5789,-2.51694 -79.06231,-31.31326 -3.83984,-3.2921 -7.67968,-6.82347 -11.58672,-10.52708 a 465.13902,463.70806 0 0 0 38.61919,-48.99874 458.70729,457.29611 0 0 0 62.3974,-9.61792 q 1.41115,5.68462 2.4959,11.13955 v 0 c 4.61741,23.25527 5.27978,44.29028 2.22711,60.74122 z m 16.7033,-98.22717 v 0 c -2.51509,0.83259 -5.10699,1.63648 -7.73728,2.42123 a 463.91027,462.48309 0 0 0 -23.33662,-58.31999 462.23994,460.8179 0 0 0 22.42466,-57.47783 c 4.71341,1.36852 9.29241,2.80403 13.69863,4.32567 42.64142,14.66134 68.65634,36.36626 68.65634,53.04688 0,17.80033 -28.09803,40.90247 -73.70573,56.00404 z"
       id="path4"
       style="stroke-width:0.999998;fill:#61dbfb;fill-opacity:1" />
    <path
       d="m 246.3904,287.52003 a 41.27828,41.151291 0 1 0 -41.14389,-41.15129 41.191884,41.06516 0 0 0 41.14389,41.15129 z"
       id="path6"
       style="stroke-width:0.999998;fill:#61dbfb;fill-opacity:1" />
  </g>
  <metadata
     id="metadata295">
    <rdf:RDF>
      <cc:Work
         rdf:about="">
        <dc:title>ionicons-v5_logos</dc:title>
      </cc:Work>
    </rdf:RDF>
  </metadata>
</svg>
