<?xml version="1.0" encoding="UTF-8" standalone="no"?>
<!-- Created with Inkscape (http://www.inkscape.org/) -->

<svg
   version="1.1"
   id="svg2"
   width="12000"
   height="12000"
   viewBox="0 0 12000 12000"
   sodipodi:docname="logo rust.svg"
   inkscape:version="1.2.2 (b0a8486541, 2022-12-01)"
   xmlns:inkscape="http://www.inkscape.org/namespaces/inkscape"
   xmlns:sodipodi="http://sodipodi.sourceforge.net/DTD/sodipodi-0.dtd"
   xmlns="http://www.w3.org/2000/svg"
   xmlns:svg="http://www.w3.org/2000/svg">
  <defs
     id="defs6" />
  <sodipodi:namedview
     id="namedview4"
     pagecolor="#ffffff"
     bordercolor="#000000"
     borderopacity="0.25"
     inkscape:showpageshadow="2"
     inkscape:pageopacity="0.0"
     inkscape:pagecheckerboard="0"
     inkscape:deskcolor="#d1d1d1"
     showgrid="false"
     inkscape:zoom="0.071083335"
     inkscape:cx="5999.9998"
     inkscape:cy="5999.9998"
     inkscape:window-width="1920"
     inkscape:window-height="1048"
     inkscape:window-x="0"
     inkscape:window-y="0"
     inkscape:window-maximized="1"
     inkscape:current-layer="g8" />
  <g
     inkscape:groupmode="layer"
     inkscape:label="Image"
     id="g8">
    <path
       style="fill:#b7410e;fill-opacity:1;stroke-width:1.00001"
       d="M 2.466,11997.501 C 1.11,11996.126 0,9296.1267 0,5997.5003 V 0 h 6000 6000 V 5999.9999 12000 H 6002.466 c -3298.643,0 -5998.643,-1.125 -6000,-2.499 z"
       id="path293" />
    <path
       style="fill:#000000;fill-opacity:1;stroke-width:1"
       d="m 8805.3,10574.27 c -21.926,-29.784 -39.865,-56.784 -39.865,-60 0,-3.217 -2.025,-5.868 -4.5,-5.89 -2.475,0 -11.226,-10.148 -19.447,-22.5 -8.22,-12.353 -16.32,-23.809 -18,-25.459 -1.679,-1.65 -5.753,-7.448 -9.053,-12.884 -3.3,-5.437 -28.95,-41.328 -57,-79.758 -28.05,-38.431 -59.666,-82.583 -70.258,-98.116 -10.592,-15.533 -51.092,-71.872 -90,-125.197 -38.908,-53.325 -74.792,-102.913 -79.742,-110.194 -4.95,-7.282 -13.729,-19.433 -19.509,-27.003 -5.78,-7.5703 -33.25,-45.7333 -61.045,-84.8063 -27.793,-39.073 -52.786,-73.742 -55.537,-77.042 -2.752,-3.3 -10.166,-14.03 -16.475,-23.844 -6.31,-9.814 -13.764,-20.614 -16.564,-24 -2.801,-3.386 -10.442,-12.644 -16.981,-20.574 -6.539,-7.93 -11.889,-16.512 -11.889,-19.072 0,-2.559 -3.457,-8.221 -7.682,-12.582 -7.314,-7.548 -63.242,-84.245 -82.318,-112.886 -4.95,-7.432 -11.828,-16.556 -15.285,-20.277 -3.457,-3.721 -15.502,-20.265 -26.768,-36.765 -20.695,-30.313 -103.394,-144.786 -112.811,-156.156 -2.803,-3.386 -10.26,-14.186 -16.568,-24 -12.537,-19.503 -90.421,-127.384 -112.06,-155.22 -7.429,-9.557 -24.308,-32.93 -37.508,-51.941 -23.839,-34.333 -135.209,-189.518 -296.885,-413.683 -151.684,-210.312 -180.115,-250.766 -180.115,-256.281 0,-2.991 146.309,-149.727 325.132,-326.079 384.454,-379.142 473.327,-467.01 709.107,-701.09 l 177.732,-176.449 59.877,41.449 c 32.932,22.798 142.964,99.81 244.515,171.139 101.55,71.329 258.887,181.78 349.637,245.446 90.75,63.666 228.45,160.345 306,214.843 77.55,54.497 149.1,104.697 159,111.554 9.9,6.858 19.35,13.818 21,15.468 1.65,1.65 20.55,15.026 42,29.724 21.45,14.697 52.5,36.164 69,47.703 124.766,87.255 217.874,152.664 228,160.173 11.372,8.433 119.003,83.848 350.228,245.4 56.679,39.6 129.638,90.9 162.132,114 32.493,23.1 64.155,45.43 70.359,49.621 6.205,4.192 27.048,18.752 46.32,32.357 l 35.039,24.736 -281.715,279.643 c -154.943,153.804 -420.083,415.993 -589.2,582.643 -169.117,166.65 -398.683,393.4503 -510.147,504.0003 -364.076,361.091 -448.978,444 -454.673,444 -3.087,0 -23.552,-24.368 -45.478,-54.151 z M 6876.489,8079.6037 c -82.291,-81.501 -216.767,-214.095 -298.837,-294.653 -82.069,-80.558 -152.498,-151.08 -156.507,-156.715 -7.733,-10.867 -14.867,-3.493 394.29,-407.577 70.95,-70.069 282.204,-279.013 469.453,-464.319 187.249,-185.305 343.849,-337.527 348,-338.271 4.151,-0.744 145.247,134.987 313.547,301.625 l 306,302.977 -195.71,193.376 c -107.641,106.356 -334.064,329.724 -503.162,496.374 -169.098,166.65 -353.605,349.498 -410.016,406.329 -56.411,56.831 -105.912,104.613 -110.002,106.183 -4.091,1.569 -74.766,-63.829 -157.056,-145.329 z m -5559.428,-544.716 c -5.309,-13.835 -4.441,-2539.277 0.874,-2542.416 4.134,-2.441 59.132,3.809 96.756,10.996 8.659,1.654 34.644,5.887 57.744,9.406 23.1,3.52 48.75,7.68 57,9.245 8.25,1.566 31.2,5.441 51,8.611 19.8,3.171 41.4,6.835 48,8.143 6.6,1.308 26.85,4.358 45,6.778 37.229,4.964 51,7.369 51,8.906 0,0.58 6.75,1.903 15,2.941 12.939,1.627 44.621,6.328 123,18.251 16.133,2.454 63.865,10.904 96,16.994 6.6,1.251 26.85,4.256 45,6.678 18.15,2.422 38.4,5.577 45,7.01 6.6,1.433 29.55,5.244 51,8.469 21.45,3.225 45.75,7.149 54,8.72 8.25,1.57 33.9,5.735 57,9.254 23.1,3.52 48.75,7.583 57,9.03 8.25,1.447 31.2,5.167 51,8.267 19.8,3.099 41.4,6.808 48,8.241 6.6,1.433 26.85,4.587 45,7.009 18.15,2.422 38.4,5.466 45,6.764 26.162,5.145 43.61,8.114 81,13.781 21.45,3.251 45.75,7.144 54,8.651 8.25,1.507 28.069,4.531 44.043,6.721 15.973,2.19 34.198,5.129 40.5,6.532 27.506,6.125 34.354,7.267 68.246,11.387 19.685,2.392 41.285,5.572 48,7.065 6.716,1.493 28.411,5.235 48.211,8.315 19.8,3.08 41.4,6.706 48,8.057 6.6,1.351 33.6,5.754 60,9.786 26.4,4.032 50.7,7.927 54,8.655 3.3,0.729 19.5,3.356 36,5.838 28.939,4.353 41.626,6.517 70.5,12.022 7.425,1.416 33.75,5.7 58.5,9.52 24.75,3.82 49.05,7.798 54,8.84 4.95,1.043 23.85,3.876 42,6.296 18.15,2.42 35.7,4.95 39,5.622 17.187,3.498 55.475,9.932 123,20.667 41.25,6.558 84.45,13.485 96,15.393 77.564,12.812 100.394,16.455 111,17.713 18.398,2.182 70.552,10.598 84,13.556 6.6,1.451 18.75,3.567 27,4.702 8.25,1.135 33.9,5.163 57,8.952 23.1,3.789 52.8,8.369 66,10.177 13.2,1.808 28.05,5.505 33,8.216 7.934,4.345 9.001,105.828 9.005,857.282 0,752.115 -1.053,852.821 -9,856.328 -14.28,6.303 -25.493,8.858 -48.005,10.937 -11.55,1.066 -21.675,2.566 -22.5,3.332 -2.666,2.477 -49.985,10.388 -91.5,15.299 -8.25,0.976 -20.4,2.962 -27,4.413 -18.029,3.966 -70.361,12.458 -84,13.632 -6.6,0.57 -13.35,1.719 -15,2.557 -1.65,0.838 -8.4,2.212 -15,3.054 -6.6,0.841 -24.15,3.54 -39,5.996 -14.85,2.457 -32.4,4.986 -39,5.619 -6.6,0.634 -20.1,2.885 -30,5.003 -18.751,4.011 -55.233,10.011 -81,13.32 -20.299,2.607 -59.671,9.084 -78,12.832 -8.25,1.686 -20.4,3.783 -27,4.658 -6.6,0.876 -21.96,3.643 -34.134,6.15 -12.173,2.507 -31.073,5.316 -42,6.241 -10.926,0.925 -25.266,3.056 -31.866,4.736 -10.735,2.731 -44.432,7.995 -87,13.591 -8.25,1.085 -20.4,3.207 -27,4.717 -10.16,2.324 -31.81,5.693 -81,12.607 -4.95,0.696 -15.75,3.003 -24,5.125 -14.197,3.654 -46.912,8.562 -87,13.055 -9.9,1.109 -18,2.488 -18,3.066 0,0.576 -8.1,2.07 -18,3.319 -9.9,1.248 -27.45,4.184 -39,6.525 -11.55,2.341 -26.4,4.698 -33,5.238 -6.6,0.54 -21.45,2.77 -33,4.954 -39.81,7.528 -63.053,11.392 -81,13.464 -9.9,1.143 -24.75,3.653 -33,5.579 -8.25,1.925 -24.45,4.689 -36,6.143 -11.55,1.454 -26.831,3.871 -33.957,5.373 -7.127,1.501 -26.027,4.521 -42,6.711 -15.974,2.189 -35.793,5.348 -44.043,7.018 -14.549,2.947 -77.551,12.822 -108,16.929 -8.25,1.113 -21.75,3.497 -30,5.297 -8.25,1.801 -25.8,4.848 -39,6.773 -31.444,4.585 -46.138,6.938 -93,14.899 -39.682,6.741 -46.115,7.701 -99,14.778 -16.5,2.208 -35.364,5.571 -41.92,7.473 -6.556,1.903 -18.706,4.183 -27,5.068 -8.294,0.884 -25.88,3.563 -39.08,5.951 -13.2,2.389 -28.05,4.207 -33,4.04 -4.95,-0.168 -13.05,1.257 -18,3.163 -4.95,1.906 -15.75,4.125 -24,4.931 -15.365,1.501 -49.002,6.785 -81,12.727 -9.9,1.838 -22.05,3.951 -27,4.695 -4.95,0.744 -22.5,3.648 -39,6.454 -16.5,2.806 -32.463,4.42 -35.474,3.587 -3.011,-0.834 -12.461,1.149 -21,4.407 -8.539,3.258 -30.376,7.582 -48.526,9.61 -37.555,4.196 -57.736,7.139 -75,10.935 -6.6,1.452 -25.5,4.776 -42,7.386 -16.5,2.612 -35.4,5.637 -42,6.725 -64.501,10.629 -92.279,15.002 -105,16.531 -15.483,1.862 -53.273,8.258 -75.874,12.842 -8,1.623 -14.248,-0.966 -16.5,-6.836 z m 3014.374,-1274.428 v -852.039 h 434.358 c 342.189,0 434.875,1.592 436.791,7.5 1.338,4.125 2.283,386.85 2.1,850.5 l -0.336,843 -436.458,1.539 -436.457,1.54 v -852.04 z m 1623,308.959 -306,-302.686 306,-302.945 c 168.3,-166.62 308.7,-302.969 312,-302.998 3.3,0 143.59,136.315 311.756,302.988 l 305.756,303.041 -161.756,159.55 c -88.966,87.752 -226.849,224.013 -306.408,302.8 -79.558,78.789 -147.058,143.181 -150,143.094 -2.941,-0.08 -143.048,-136.366 -311.348,-302.844 z m -556.001,-1366.498 c -1.321,-7.425 -2.298,-201.15 -2.173,-430.5 l 0.228,-417 860.653,-1.52 c 496.431,-0.877 862.91,0.737 865.987,3.813 3.843,3.843 7.743,726.288 4.579,848.207 -0.258,9.95 -45.486,10.5 -863.573,10.5 h -863.3 z m -1.133,-1279.407 c -1.888,-4.92 -5.098,-23.154 -7.134,-40.52 -2.035,-17.365 -5.238,-35.623 -7.118,-40.573 -3.672,-9.667 -4.58,-15.289 -10.667,-66 -2.178,-18.15 -5.525,-37.05 -7.436,-42 -1.911,-4.95 -3.904,-13.05 -4.43,-18 -4.318,-40.687 -10.539,-82.545 -13.375,-90 -1.884,-4.95 -4.214,-15.75 -5.179,-24 -1.98,-16.931 -12.849,-83.9 -20.938,-129 -2.959,-16.5 -6.416,-39.45 -7.683,-51 -1.267,-11.55 -3.667,-26.4 -5.333,-33 -2.764,-10.942 -10.067,-54.194 -14.182,-84 -2.207,-15.978 -7.714,-49.133 -12.458,-75 -2.118,-11.55 -4.458,-26.4 -5.199,-33 -1.69,-15.048 -13.076,-79.006 -17.624,-99 -1.876,-8.25 -5.938,-32.55 -9.027,-54 -3.088,-21.45 -7.23,-48.45 -9.203,-60 -1.973,-11.55 -6.011,-35.85 -8.972,-54 -2.962,-18.15 -6.506,-38.4 -7.876,-45 -2.642,-12.728 -10.713,-63.888 -13.252,-84 -0.833,-6.6 -2.91,-18.75 -4.615,-27 -1.705,-8.25 -4.892,-28.069 -7.082,-44.042 -2.19,-15.974 -5.289,-34.874 -6.886,-42 -1.599,-7.127 -4.145,-21.058 -5.659,-30.958 -1.514,-9.9 -4.486,-27.45 -6.605,-39 -2.118,-11.55 -4.649,-26.4 -5.623,-33 -3.263,-22.096 -13.243,-83.804 -16.495,-102 -1.77,-9.9 -5.847,-34.2 -9.059,-54 -3.212,-19.8 -7.397,-44.1 -9.299,-54 -1.902,-9.9 -6.175,-35.55 -9.495,-57 -13.954,-90.156 -22.665,-142.815 -30.273,-183 -3.748,-19.8 -6.57,-42.345 -6.27,-50.101 0.3,-7.756 -1.403,-17.206 -3.785,-21 -2.382,-3.794 -5.114,-13.649 -6.072,-21.899 -1.993,-17.178 -12.655,-84.813 -20.335,-129 -9.201,-52.945 -10.262,-59.527 -14.022,-87 -2.033,-14.85 -5.205,-33.75 -7.05,-42 -1.846,-8.25 -6.876,-36.6 -11.18,-63 -4.303,-26.4 -9.086,-53.4 -10.629,-60 -5.863,-25.086 -12.327,-72.332 -10.961,-80.118 0.784,-4.464 -0.522,-12.564 -2.9,-18 -4.919,-11.239 -4.379,-8.098 -10.987,-63.882 -2.736,-23.1 -6.53,-44.637 -8.431,-47.86 -3.308,-5.608 -6.972,-31.085 -9.08,-63.14 l -0.987,-15 1286.638,-1.514 c 896.322,-1.054 1287.822,0.404 1290.543,4.807 3.503,5.668 -0.372,42.532 -9.736,92.707 -1.849,9.9 -5.854,34.2 -8.902,54 -3.048,19.8 -7.098,44.1 -9,54 -1.902,9.9 -5.961,33.865 -9.021,53.256 -3.058,19.391 -6.903,42.341 -8.542,51 -1.639,8.659 -5.68,31.944 -8.98,51.744 -3.3,19.8 -7.273,42.75 -8.828,51 -1.556,8.25 -5.484,32.55 -8.728,54 -3.245,21.45 -7.295,45.75 -9,54 -3.229,15.616 -15.42,90.125 -18.163,111 -2.889,21.993 -10.79,71.844 -13.313,84 -1.37,6.6 -4.914,26.85 -7.876,45 -2.961,18.15 -6.744,41.1 -8.404,51 -9.106,54.284 -16.535,97.734 -18.979,111 -1.52,8.25 -5.776,33.9 -9.459,57 -3.683,23.1 -7.279,44.7 -7.993,48 -0.712,3.3 -3.327,19.5 -5.809,36 -2.482,16.5 -5.811,36.75 -7.4,45 -1.587,8.25 -4.101,24.45 -5.585,36 -2.378,18.503 -10.915,70.13 -17.362,105 -1.219,6.6 -5.316,30.9 -9.101,54 -3.785,23.1 -7.624,46.05 -8.531,51 -0.906,4.95 -3.754,22.5 -6.329,39 -2.575,16.5 -5.802,35.4 -7.172,42 -1.37,6.6 -4.914,26.85 -7.876,45 -2.961,18.15 -6.979,42.45 -8.928,54 -5.347,31.685 -15.753,96.685 -18.73,117 -1.451,9.9 -5.388,34.2 -8.75,54 -3.361,19.8 -7.411,44.1 -9,54 -1.588,9.9 -5.688,34.2 -9.111,54 -3.423,19.8 -7.391,43.565 -8.817,52.811 -1.427,9.245 -5.581,33.545 -9.232,54 -11.469,64.261 -21.308,136.189 -18.629,136.189 1.416,0 -0.126,3.375 -3.432,7.5 -3.303,4.125 -7.969,26.4 -10.37,49.5 -2.401,23.1 -5.675,47.4 -7.276,54 -4.205,17.327 -14.438,75.445 -16.376,93 -0.91,8.25 -3.308,21.75 -5.329,30 -2.02,8.25 -5.017,24.45 -6.66,36 -1.643,11.55 -7.29,46.65 -12.547,78 -5.259,31.35 -10.693,65.1 -12.077,75 -1.383,9.9 -4.644,31.5 -7.246,48 l -4.73,30 -867.777,1.52 c -764.484,1.34 -868.185,0.456 -871.209,-7.427 z"
       id="path295" />
  </g>
</svg>
