<?xml version="1.0" encoding="UTF-8" standalone="no"?>
<!-- Created with Inkscape (http://www.inkscape.org/) -->

<svg
   version="1.1"
   id="svg2"
   width="480"
   height="480"
   viewBox="0 0 480 480"
   sodipodi:docname="logo1 rust.svg"
   inkscape:version="1.2.2 (b0a8486541, 2022-12-01)"
   xmlns:inkscape="http://www.inkscape.org/namespaces/inkscape"
   xmlns:sodipodi="http://sodipodi.sourceforge.net/DTD/sodipodi-0.dtd"
   xmlns="http://www.w3.org/2000/svg"
   xmlns:svg="http://www.w3.org/2000/svg">
  <defs
     id="defs6" />
  <sodipodi:namedview
     id="namedview4"
     pagecolor="#ffffff"
     bordercolor="#000000"
     borderopacity="0.25"
     inkscape:showpageshadow="2"
     inkscape:pageopacity="0.0"
     inkscape:pagecheckerboard="0"
     inkscape:deskcolor="#d1d1d1"
     showgrid="false"
     inkscape:zoom="1.4550781"
     inkscape:cx="241.56779"
     inkscape:cy="256.68725"
     inkscape:window-width="1920"
     inkscape:window-height="1048"
     inkscape:window-x="0"
     inkscape:window-y="0"
     inkscape:window-maximized="1"
     inkscape:current-layer="g8" />
  <g
     inkscape:groupmode="layer"
     inkscape:label="Image"
     id="g8">
    <path
       style="fill:#604738;stroke:none;stroke-width:0.999999"
       d="M 237.07285,0.76740694 C 229.2669,4.1748516 227.13089,18.466936 218.13666,19.128235 207.97831,19.875226 202.53443,1.1286688 191.91043,5.1628246 c -9.38163,3.562214 -6.68336,20.7872014 -16.60406,22.9957964 -9.85886,2.194829 -17.50541,-14.040632 -27.57779,-9.521853 -9.7439,4.371921 -2.91467,21.447141 -12.35039,26.118693 -9.26377,4.586731 -19.74479,-10.12974 -28.86944,-4.339643 -9.237681,5.861347 0.78253,21.777694 -6.887201,28.589209 -7.79532,6.922701 -20.554942,-5.695682 -28.800551,0.881054 -9.26473,7.389643 5.235587,22.121142 -2.14992,29.996233 -6.93792,7.397196 -21.417562,-1.59654 -27.993974,6.405536 -7.285131,8.86482 9.051901,20.35371 3.513255,29.56459 -5.183515,8.61957 -19.854248,2.86737 -25.511723,10.9596 -6.838607,9.78185 12.073518,19.12844 9.014321,29.08767 -2.935828,9.55887 -19.0825415,6.74385 -22.8129715,15.90239 -4.13562398,10.15309 13.2161025,16.32114 14.3910515,25.29065 1.400917,10.69304 -18.58371348,11.91346 -19.25185548,22.52895 -0.723142,11.48791 19.24045548,11.87663 19.30624648,22.57063 0.06115,9.94081 -17.6666615,14.63931 -14.7690795,25.32072 2.766569,10.19865 22.9536315,7.08797 23.4127155,18.34614 0.369236,9.05385 -14.65315,17.50282 -9.717243,26.75246 4.980155,9.334 21.903502,2.49999 26.322555,12.38458 4.099764,9.17017 -10.947934,20.26549 -3.897272,28.89184 6.643168,8.12908 22.179414,-1.64888 28.479527,6.99007 5.984397,8.20663 -7.478443,22.17805 1.60273,29.34939 8.293817,6.54998 21.143188,-6.08178 28.920148,0.88115 7.623371,6.82625 -2.40264,22.69858 6.829241,28.59716 9.17199,5.8598 19.59215,-8.95594 28.86171,-4.34759 9.46278,4.70529 2.23165,23.05046 13.10684,26.41028 10.12647,3.12716 17.05135,-11.96776 26.8281,-9.80996 10.4279,2.30127 6.79833,22.07142 18.25606,23.39459 10.33032,1.19329 14.46612,-15.11138 24.5752,-14.36788 10.37283,0.76386 11.11478,19.78081 22.33196,18.99077 10.40857,-0.73284 10.86747,-17.84692 20.75725,-19.31356 10.38345,-1.53936 15.05446,17.42815 26.11707,14.51715 10.08301,-2.65313 6.96931,-19.96206 16.68714,-22.97582 9.92263,-3.07674 17.43778,13.67577 27.71884,9.26807 9.86757,-4.23125 3.53875,-20.48068 12.25378,-25.75886 9.15266,-5.54281 19.6762,9.75082 28.97957,4.05194 9.24444,-5.66399 -0.67915,-21.85815 7.51322,-28.71639 7.93638,-6.64401 20.63359,6.17193 28.69072,-0.85401 8.58653,-7.48735 -5.11928,-21.6003 2.10605,-29.63922 6.85727,-7.62985 20.91279,1.05369 27.65894,-6.66728 7.56154,-8.65349 -8.95654,-20.40508 -3.64888,-29.62662 5.13858,-8.92685 20.95431,-2.49901 25.96925,-11.59067 5.59072,-10.13757 -12.35136,-18.39751 -9.45311,-28.42267 2.83448,-9.80509 19.95539,-6.71864 23.19949,-16.67496 3.50881,-10.76962 -15.27762,-15.51174 -14.55788,-25.63866 0.71392,-10.04841 17.5595,-10.75993 19.38829,-20.62028 1.97757,-10.66686 -15.98672,-13.03307 -19.02891,-21.49174 -3.7687,-10.47686 16.47364,-15.7153 14.41297,-26.45777 -2.03939,-10.63779 -19.18348,-7.73066 -23.13477,-16.73701 -4.24593,-9.67424 12.46439,-17.56872 9.78932,-27.65494 -2.91564,-10.98772 -21.42288,-4.15371 -26.58465,-13.12031 -5.02944,-8.73687 8.16436,-18.36263 4.82655,-27.51826 -3.78222,-10.374106 -21.25672,-2.00949 -28.2444,-8.19209 -8.43292,-7.45922 5.12701,-21.536402 -2.1476,-29.662469 -6.60317,-7.37578 -19.27141,2.683874 -27.24255,-0.231774 -11.72631,-4.288556 -0.11497,-23.851838 -9.60865,-29.831931 -8.99229,-5.663984 -18.98545,8.490644 -28.15454,4.370272 -9.65986,-4.341289 -3.34457,-20.612907 -12.27215,-25.755762 -9.24541,-5.326162 -17.76141,9.580014 -26.78269,9.171912 C 294.32289,27.688771 297.53801,7.6230666 287.33907,4.9341536 276.60493,2.1038279 271.94648,19.578503 262.0712,19.517822 251.39792,19.452196 249.23873,-4.5438553 237.07285,0.76740694 M 236.82457,42.123932 c 16.70645,-3.131137 21.42576,23.05793 4.70481,26.342323 -16.7934,3.298742 -21.43833,-23.206047 -4.70481,-26.342323 M 416.46081,251.20461 c -5.42939,0.005 -13.54255,-1.20394 -17.93243,2.75009 -3.93775,3.54592 -3.09339,9.94759 -3.82084,14.69649 -1.13226,7.38364 -5.23327,13.72521 -12.1369,16.8669 -26.24846,11.94255 -28.59023,-17.69667 -37.20577,-33.34315 -4.80142,-8.71941 -12.03737,-15.21124 -19.7158,-21.32693 12.08472,-11.47241 26.21657,-20.66099 32.60528,-36.83577 13.00637,-32.93214 -18.66182,-63.24217 -48.0626,-70.98446 -22.22183,-5.85204 -47.71674,-2.68707 -70.52401,-2.68707 h -131.3872 c 18.11984,-21.203836 42.55207,-37.576263 68.59185,-47.336384 8.01463,-3.003958 19.30329,-8.275156 28.01542,-6.460897 13.72223,2.857584 19.10138,24.09379 33.81481,23.89924 15.32497,-0.202597 21.68082,-22.215748 36.71018,-24.08148 10.42306,-1.294001 23.41396,5.019553 32.84679,8.859486 31.67784,12.896106 61.87951,36.911465 79.64865,66.445995 12.15815,20.20732 -18.16523,37.66167 -9.9516,57.01014 5.84286,13.76203 25.79923,12.37972 35.11998,22.24201 6.26118,6.6256 3.38419,21.87463 3.38419,30.28579 M 65.83978,172.03195 c 16.811567,-2.33714 20.731829,23.89962 3.732363,26.5741 -17.13859,2.69579 -20.929594,-24.18463 -3.732363,-26.5741 m 341.99778,0.94318 c 16.64559,-3.53235 22.21216,22.04524 5.64675,26.12626 -16.60212,4.09071 -22.73095,-22.50084 -5.64675,-26.12626 m -287.96403,0.68049 v 113.41541 c -12.8402,0 -35.729103,4.46002 -47.297451,-1.39492 -5.077342,-2.56978 -5.8846,-10.10657 -6.78837,-15.0862 -2.379848,-13.11353 -7.328314,-36.23184 -0.768422,-48.62126 7.113167,-13.43343 36.077473,-10.04261 36.268753,-28.94808 0.0667,-6.53737 -3.702991,-13.19883 -5.566571,-19.36495 h 24.152061 m 80.18484,34.89706 v -32.95833 c 20.17953,0 42.92111,-2.93716 62.79341,0.68049 8.01366,1.45889 17.79428,7.40496 17.20207,16.76221 -0.58158,9.17212 -10.32163,13.53327 -18.16622,14.78569 -19.86167,3.17273 -41.74054,0.72994 -61.82926,0.72994 m 181.62348,134.74135 c -4.2102,6.67116 -9.89173,16.11952 -18.39035,17.45434 -11.66738,1.83307 -25.25628,-8.82702 -36.28799,-1.87184 -14.25744,8.99084 -5.30474,32.59772 -18.43188,41.99569 -7.78759,5.57576 -19.14485,7.88285 -28.32842,9.97763 -25.94125,5.91506 -54.23297,6.14189 -80.18484,0.10568 -9.94969,-2.31388 -23.80717,-4.66943 -31.72614,-11.58389 -11.46933,-10.01448 -3.6431,-31.56243 -16.98663,-40.87123 -10.87712,-7.58719 -24.51626,3.46548 -36.17012,1.42206 -7.93541,-1.39103 -13.05178,-10.13856 -16.555761,-16.62844 H 244.49815 v -54.28429 h -44.43978 v -32.95832 c 19.93608,0 52.17617,-6.31733 66.53892,10.96058 17.37209,20.89752 6.54617,54.2746 31.23054,71.66205 8.14408,5.73571 18.37682,4.61998 27.82124,4.61998 h 56.03278 m -251.14663,31.3802 c 16.63207,-2.88773 21.27313,22.8973 4.72028,26.33369 -17.02334,3.53333 -22.06532,-23.32188 -4.72028,-26.33369 m 211.6271,1.02267 c 16.46398,-4.52885 23.22654,21.61776 6.58482,25.88683 -16.52871,4.23901 -22.98794,-21.37541 -6.58482,-25.88683 z"
       id="path295" />
  </g>
</svg>
